<svg width="1232" height="204" viewBox="0 0 1232 204" fill="none" xmlns="http://www.w3.org/2000/svg">
<g clip-path="url(#clip0_2228_113)">
<path d="M277.265 39.2296C273.131 35.7812 268.315 33.3229 263.088 31.9914C257.896 30.6598 252.465 30.5233 247.204 31.5817C245.837 31.8548 244.198 32.4011 242.831 32.6743L227.22 11.984C226.127 10.0037 224.589 8.2966 222.745 6.99919C220.9 5.66764 218.782 4.77993 216.562 4.37022C191.386 1.63883 166.107 0.170712 140.794 0H138.608C115.139 0.102427 91.6712 1.57054 68.3738 4.37022C66.085 4.64336 63.933 5.4628 62.0542 6.79435C60.1754 8.1259 58.7064 9.90132 57.7157 11.984L41.8652 32.6743C40.4988 32.4011 38.586 31.8548 37.4928 31.5817C32.2321 30.5233 26.8005 30.6598 21.5739 31.9914C16.3816 33.3229 11.5309 35.7812 7.39748 39.2296C2.47838 43.2925 -0.254574 48.209 0.01871 52.5793C0.0528704 54.4912 0.531167 56.3349 1.35102 58.042C2.17087 59.7491 3.43473 61.2173 4.90363 62.3781C8.52463 64.8022 12.829 66.0313 17.2015 65.8948C16.1084 67.2605 15.0152 68.8993 13.922 70.5381C8.45636 79.5176 9.27617 88.7702 9.82274 94.7792C9.82274 96.1449 10.0961 97.2374 10.0961 98.33V146.573C10.0961 148.827 10.5402 151.046 11.4284 153.094C12.3166 155.143 13.6488 157.021 15.2885 158.523L15.0152 165.625C14.8785 168.185 15.2884 170.78 16.2449 173.17C17.2014 175.56 18.6361 177.745 20.4808 179.521C22.223 181.364 24.3751 182.832 26.7322 183.822C29.0893 184.813 31.6171 185.291 34.1791 185.256H73.5662C75.2059 185.256 76.8455 184.949 78.3828 184.335C79.92 183.72 81.2864 182.798 82.4821 181.637C83.6435 180.476 84.5658 179.077 85.2149 177.574C85.8639 176.038 86.1714 174.399 86.1714 172.76V168.936C99.0158 169.483 104.755 169.756 105.916 170.029C108.649 170.541 121.288 170.848 145.303 170.848C169.318 170.848 176.731 170.848 179.464 170.029C180.557 169.756 186.296 169.483 199.208 168.936V172.76C199.208 174.399 199.55 176.038 200.165 177.574C200.814 179.111 201.736 180.476 202.898 181.637C204.059 182.798 205.46 183.72 206.963 184.335C208.5 184.949 210.105 185.291 211.779 185.291H251.166C253.728 185.325 256.256 184.847 258.613 183.857C260.97 182.866 263.088 181.398 264.83 179.555C268.349 175.799 270.296 170.814 270.296 165.659L270.023 158.557C271.662 157.021 272.995 155.177 273.883 153.128C274.771 151.08 275.249 148.827 275.215 146.607V98.3641C275.181 97.1691 275.283 95.9742 275.488 94.8133C276.035 88.8384 276.855 79.5858 271.389 70.5722C270.296 68.9334 269.203 67.2946 268.11 65.9289C272.483 66.0655 276.787 64.8363 280.408 62.4122C281.877 61.2172 283.106 59.7491 283.96 58.042C284.814 56.3349 285.292 54.4912 285.361 52.6134C284.985 49.9503 284.063 47.4237 282.697 45.1362C281.262 42.7804 279.417 40.8001 277.265 39.2296ZM90.5097 120.659C89.9631 121.205 89.3141 121.615 88.6309 121.888C87.9135 122.161 87.1621 122.298 86.4106 122.264H86.1373C80.3983 122.264 65.9142 121.718 57.4082 120.625C53.958 119.976 50.7129 118.372 48.1167 115.982C39.6449 107.548 35.5457 100.447 35.819 95.0182C36.0923 92.7989 37.1511 90.7504 38.8249 89.2823C42.3776 86.5509 47.6042 88.736 58.2622 92.799C66.3582 96.179 74.6593 98.9787 83.1311 101.232L83.9509 101.505C90.783 104.783 91.603 113.728 92.1495 116.186C92.2178 117.894 91.637 119.464 90.5097 120.659ZM51.5669 51.0087C58.8431 36.0885 66.1193 24.6849 73.3955 20.3147C84.361 13.7252 186.091 12.0181 209.73 20.3147C217.006 20.3147 229.713 43.3949 233.369 51.0087C242.421 77.3324 40.6014 73.4744 51.5669 51.0087ZM237.024 116.289C234.496 118.781 231.251 120.386 227.732 120.932C219.261 122.025 204.776 122.298 199.037 122.571H198.764C198.013 122.605 197.261 122.469 196.544 122.161C195.826 121.888 195.212 121.444 194.665 120.898C193.572 119.703 192.957 118.133 193.025 116.528C193.025 113.796 194.118 104.851 200.95 101.574L201.77 101.3C210.242 99.047 218.543 96.2132 226.673 92.8672C237.058 88.8043 242.524 86.6192 246.418 89.5896C247.306 90.2724 248.058 91.1259 248.57 92.1161C249.083 93.1062 249.39 94.1988 249.424 95.3255C249.663 100.754 245.564 107.924 237.024 116.289Z" fill="#0273FF"/>
<path d="M445.983 169.995L436.691 135.477C436.521 134.794 435.906 134.35 435.222 134.35H384.904C384.221 134.35 383.606 134.828 383.435 135.477L374.144 169.995C373.973 170.678 373.358 171.121 372.675 171.121H344.424C343.399 171.121 342.648 170.131 342.955 169.141L391.463 13.3494C391.668 12.7007 392.249 12.2568 392.932 12.2568H428.151C428.834 12.2568 429.415 12.7007 429.62 13.3494L477.889 169.141C478.196 170.131 477.445 171.121 476.42 171.121H447.486C446.769 171.121 446.154 170.643 445.983 169.995ZM391.702 111.338H428.185C429.21 111.338 429.927 110.382 429.654 109.426L411.413 41.0389C411.003 39.5366 408.851 39.5366 408.441 41.0389L390.199 109.426C389.96 110.382 390.711 111.338 391.702 111.338Z" fill="#0273FF"/>
<path d="M601.106 133.872C601.106 146.436 596.324 155.791 586.725 161.937C577.126 168.082 564.213 171.121 547.953 171.121H501.426C500.572 171.121 499.889 170.438 499.889 169.585V52.1348C499.889 51.3837 500.435 50.7691 501.153 50.6326C517.072 47.5939 531.453 46.0575 544.298 46.0575C560.08 46.0575 572.514 48.8913 581.567 54.5589C590.619 60.2265 595.128 68.4207 595.128 79.1756C595.128 86.0723 592.976 91.6717 588.672 95.9736C585.666 98.9781 581.703 101.3 576.75 102.939C575.281 103.417 575.452 105.534 576.955 105.875C593.078 109.46 601.106 118.815 601.106 133.872ZM529.335 68.5573V96.4858C529.335 97.3393 530.018 98.0222 530.872 98.0222H546.825C559.567 98.0222 565.921 92.5935 565.921 81.7021C565.921 71.2887 558.645 66.0649 544.059 66.0649C540.267 66.0649 535.792 66.4063 530.702 67.0209C529.916 67.1233 529.335 67.772 529.335 68.5573ZM570.499 132.028C570.499 126.36 568.722 122.195 565.204 119.498C561.685 116.835 555.844 115.469 547.714 115.469H530.838C529.984 115.469 529.301 116.152 529.301 117.005V149.099C529.301 149.953 529.984 150.636 530.838 150.636H547.235C562.778 150.67 570.499 144.456 570.499 132.028Z" fill="#0273FF"/>
<path d="M716.328 49.5063H713.561H617.98H614.564C613.71 49.5063 613.027 50.1892 613.027 51.0427V70.5039C613.027 71.3575 613.71 72.0403 614.564 72.0403H621.191H649.203C650.057 72.0403 650.74 72.7232 650.74 73.5767V169.619C650.74 170.473 651.423 171.156 652.277 171.156H652.311H678.649H678.683C679.537 171.156 680.221 170.473 680.221 169.619V73.5767C680.221 72.7232 680.904 72.0403 681.758 72.0403H710.418H716.362C717.216 72.0403 717.899 71.3575 717.899 70.5039V51.0427C717.865 50.1892 717.182 49.5063 716.328 49.5063Z" fill="#0273FF"/>
<path d="M829.878 63.1634C839.922 74.567 844.943 90.2725 844.943 110.177C844.943 122.913 842.654 134.111 838.043 143.876C833.431 153.607 826.838 161.152 818.264 166.512C809.69 171.873 799.476 174.57 787.656 174.57C769.722 174.57 755.682 168.868 745.571 157.431C735.459 146.027 730.403 130.253 730.403 110.177C730.403 97.4424 732.692 86.2778 737.304 76.6155C741.915 66.9532 748.542 59.4419 757.185 54.0815C765.862 48.7212 776.076 46.0239 787.895 46.0239C805.864 46.0581 819.835 51.7599 829.878 63.1634ZM761.455 110.177C761.455 124.586 763.641 135.204 768.014 142.032C772.386 148.861 778.945 152.275 787.69 152.275C796.435 152.275 802.994 148.827 807.367 141.93C811.739 135.033 813.926 124.449 813.926 110.212C813.926 95.9742 811.739 85.4243 807.367 78.5958C802.994 71.7673 796.504 68.3531 787.929 68.3531C770.268 68.3531 761.455 82.2832 761.455 110.177Z" fill="#0273FF"/>
<path d="M972.122 51.8281L939.738 105.056C939.43 105.534 939.43 106.149 939.738 106.627L975.913 168.834C976.494 169.858 975.777 171.121 974.581 171.121H945.716C945.169 171.121 944.657 170.814 944.383 170.336L915.586 117.894C915.313 117.416 914.801 117.108 914.254 117.108H903.596C902.742 117.108 902.059 117.791 902.059 118.645V169.619C902.059 170.473 901.376 171.156 900.522 171.156H874.149C873.295 171.156 872.612 170.473 872.612 169.619V51.0427C872.612 50.1892 873.295 49.5063 874.149 49.5063H900.522C901.376 49.5063 902.059 50.1892 902.059 51.0427V96.0424C902.059 96.896 902.742 97.5788 903.596 97.5788H914.971C915.518 97.5788 916.03 97.3057 916.304 96.8277L943.7 50.2916C943.974 49.8136 944.486 49.5405 945.032 49.5405H970.858C972.019 49.5064 972.737 50.8038 972.122 51.8281Z" fill="#0273FF"/>
<path d="M1084.78 63.1634C1094.83 74.567 1099.85 90.2725 1099.85 110.177C1099.85 122.913 1097.56 134.111 1092.95 143.876C1088.34 153.607 1081.74 161.152 1073.17 166.512C1064.59 171.873 1054.38 174.57 1042.56 174.57C1024.63 174.57 1010.59 168.868 1000.48 157.431C990.365 146.027 985.309 130.253 985.309 110.177C985.309 97.4424 987.597 86.2778 992.209 76.6155C996.821 66.9532 1003.45 59.4419 1012.09 54.0815C1020.77 48.7212 1030.98 46.0239 1042.8 46.0239C1060.73 46.0581 1074.74 51.7599 1084.78 63.1634ZM1016.33 110.177C1016.33 124.586 1018.51 135.204 1022.88 142.032C1027.26 148.861 1033.82 152.275 1042.56 152.275C1051.31 152.275 1057.87 148.827 1062.24 141.93C1066.61 135.033 1068.8 124.449 1068.8 110.212C1068.8 95.9742 1066.61 85.4243 1062.24 78.5958C1057.87 71.7673 1051.37 68.3531 1042.8 68.3531C1025.14 68.3531 1016.33 82.2832 1016.33 110.177Z" fill="#0273FF"/>
<path d="M1231.88 150.362V202.464C1231.88 203.317 1231.19 204 1230.34 204H1211.86C1211.07 204 1210.42 203.42 1210.32 202.634L1206.7 172.521C1206.63 171.736 1205.95 171.155 1205.16 171.155H1135.92C1135.13 171.155 1134.49 171.736 1134.38 172.521L1130.76 202.634C1130.69 203.42 1130.01 204 1129.23 204H1110.74C1109.89 204 1109.21 203.317 1109.21 202.464V150.362C1109.21 149.509 1109.89 148.826 1110.74 148.826H1114.67C1116.48 148.826 1118.26 148.211 1119.66 147.051C1121.78 145.275 1123.55 143.227 1124.99 140.905C1126.9 137.764 1128.68 132.438 1130.28 124.926C1131.89 117.415 1133.22 106.626 1134.32 92.4911L1137.42 50.9058C1137.49 50.1205 1138.14 49.4718 1138.96 49.4718H1217.67C1218.52 49.4718 1219.2 50.1546 1219.2 51.0082V147.255C1219.2 148.109 1219.89 148.792 1220.74 148.792H1230.34C1231.19 148.826 1231.88 149.509 1231.88 150.362ZM1189.42 70.1962H1164.75C1163.97 70.1962 1163.28 70.8108 1163.22 71.596L1161.71 89.4866C1160.65 102.666 1159.32 113.011 1157.82 120.522C1156.28 128.033 1154.2 133.906 1151.6 138.105C1150.1 140.529 1148.29 142.715 1146.13 144.695C1144.56 146.163 1145.52 148.792 1147.67 148.792H1189.38C1190.24 148.792 1190.92 148.109 1190.92 147.255V71.6984C1190.92 70.879 1190.24 70.1962 1189.42 70.1962Z" fill="#0273FF"/>
</g>
<defs>
<clipPath id="clip0_2228_113">
<rect width="1232" height="204" fill="white"/>
</clipPath>
</defs>
</svg>
